<svg width="400" height="400" viewBox="0 0 400 400" fill="none" xmlns="http://www.w3.org/2000/svg">
  <defs>
    <linearGradient id="waveGradient" x1="0" y1="400" x2="400" y2="0" gradientUnits="userSpaceOnUse">
      <stop offset="0%" stop-color="#0052FF" />
      <stop offset="20%" stop-color="#6040DD" />
      <stop offset="40%" stop-color="#8844FF" />
      <stop offset="60%" stop-color="#FF0420" />
      <stop offset="80%" stop-color="#FF8844" />
      <stop offset="100%" stop-color="#FCFF52" />
    </linearGradient>
  </defs>
  
  <!-- S-Wave shape with smooth base -->
  <path d="
    M 60,340
    C 60,340 50,335 50,325
    C 50,310 55,295 70,280
    C 90,260 120,245 155,240
    C 190,235 225,240 255,255
    C 285,270 305,295 310,325
    C 315,355 305,385 280,405
    C 260,420 235,425 210,420
    
    C 185,415 165,400 155,380
    C 145,360 145,335 155,315
    C 165,295 185,280 210,275
    C 235,270 260,275 280,290
    C 300,305 310,325 310,350
    C 310,365 305,378 295,388
    
    C 285,398 270,403 255,403
    C 240,403 225,398 215,388
    C 205,378 200,363 200,348
    C 200,333 205,320 215,311
    C 225,302 238,297 252,297
    C266,297 279,302 289,312
    C 299,322 304,335 304,350
    
    C 304,315 294,282 273,256
    C 252,230 223,212 190,205
    C 157,198 123,202 93,218
    C 63,234 40,261 28,293
    C 16,325 16,360 28,392
    
    L 60,360
    Z
  " fill="url(#waveGradient)"/>
</svg>
